# xmcd
#
# Track frame offsets:
#	150
#	21999
#	35643
#	55782
#	74761
#	95745
#	118504
#	135010
#	152624
#	172291
#	190890
#	210099
#	230365
#	248324
#	268643
#	287997
#	306124
#	320685
#	341134
#
# Disc length: 4788 seconds
#
# Revision: 1
# Processed by: cddbd v1.5.1PL0 Copyright (c) Steve Scherf et al.
# Submitted via: CDex 1.50Beta5
#
DISCID=1412b213
DTITLE=Sting and The Police - The Very Best Of Sting and The Police
DYEAR=1900
DGENRE=Rock
TTITLE0=Message In A Bottle
TTITLE1=Can't Stand Losing You
TTITLE2=Englishman In New York
TTITLE3=Every Breath You Take
TTITLE4=Seven Days
TTITLE5=Walking On The Moon
TTITLE6=Fields Of Gold
TTITLE7=Fragile
TTITLE8=No Title
TTITLE9=De Do Do Do,De Da Da Da
TTITLE10=No Title
TTITLE11=No Title
TTITLE12=Russians
TTITLE13=If I Ever Lose My Faith In You
TTITLE14=When We Dance-Edit
TTITLE15=Don't Stand So Close To ME
TTITLE16=Roxanne
TTITLE17=Roxanne '97-Puff Daddy Remix
TTITLE18=トラック１９
EXTD=
EXTT0=
EXTT1=
EXTT2=
EXTT3=
EXTT4=
EXTT5=
EXTT6=
EXTT7=
EXTT8=
EXTT9=
EXTT10=
EXTT11=
EXTT12=
EXTT13=
EXTT14=
EXTT15=
EXTT16=
EXTT17=
EXTT18=
PLAYORDER=
